<svg width="24" height="24" viewBox="0 0 24 24" fill="none" xmlns="http://www.w3.org/2000/svg">
<path d="M12 18V5" stroke="#525252" stroke-width="1.25" stroke-linecap="round" stroke-linejoin="round"/>
<path d="M15 13C14.1348 12.7471 13.3748 12.2206 12.834 11.4995C12.2932 10.7784 12.0005 9.90141 12 9C11.9995 9.90141 11.7068 10.7784 11.166 11.4995C10.6252 12.2206 9.8652 12.7471 9 13" stroke="#525252" stroke-width="1.25" stroke-linecap="round" stroke-linejoin="round"/>
<path d="M17.598 6.50001C17.8281 6.1015 17.9635 5.65539 17.9936 5.1962C18.0237 4.73702 17.9478 4.27705 17.7717 3.8519C17.5956 3.42675 17.324 3.04781 16.9781 2.74439C16.6321 2.44097 16.221 2.22121 15.7765 2.1021C15.332 1.983 14.866 1.96775 14.4147 2.05753C13.9634 2.14731 13.5387 2.33971 13.1737 2.61986C12.8086 2.9 12.5129 3.26037 12.3093 3.6731C12.1058 4.08582 12 4.53984 12 5.00001C12 4.53984 11.8942 4.08582 11.6907 3.6731C11.4871 3.26037 11.1914 2.9 10.8263 2.61986C10.4613 2.33971 10.0366 2.14731 9.5853 2.05753C9.13396 1.96775 8.66803 1.983 8.22353 2.1021C7.77904 2.22121 7.3679 2.44097 7.02193 2.74439C6.67596 3.04781 6.40442 3.42675 6.22833 3.8519C6.05224 4.27705 5.97632 4.73702 6.00643 5.1962C6.03655 5.65539 6.17189 6.1015 6.402 6.50001" stroke="#525252" stroke-width="1.25" stroke-linecap="round" stroke-linejoin="round"/>
<path d="M17.9969 5.125C18.5847 5.27614 19.1304 5.55905 19.5927 5.95231C20.055 6.34557 20.4217 6.83887 20.6651 7.39485C20.9085 7.95082 21.0222 8.55489 20.9976 9.16131C20.9729 9.76773 20.8106 10.3606 20.5229 10.895" stroke="#525252" stroke-width="1.25" stroke-linecap="round" stroke-linejoin="round"/>
<path d="M18 18C18.8805 18 19.7364 17.7094 20.4349 17.1734C21.1335 16.6373 21.6356 15.8858 21.8635 15.0353C22.0914 14.1848 22.0323 13.2829 21.6954 12.4694C21.3585 11.6559 20.7625 10.9763 20 10.536" stroke="#525252" stroke-width="1.25" stroke-linecap="round" stroke-linejoin="round"/>
<path d="M19.967 17.483C20.0371 18.0253 19.9953 18.5761 19.8441 19.1016C19.693 19.627 19.4357 20.1159 19.0882 20.538C18.7407 20.9601 18.3104 21.3065 17.8238 21.5558C17.3372 21.8051 16.8046 21.952 16.259 21.9874C15.7134 22.0228 15.1664 21.946 14.6516 21.7616C14.1369 21.5773 13.6654 21.2895 13.2662 20.9158C12.8671 20.5421 12.5488 20.0906 12.331 19.5891C12.1132 19.0876 12.0006 18.5468 12 18C11.9994 18.5468 11.8867 19.0876 11.669 19.5891C11.4512 20.0906 11.1329 20.5421 10.7338 20.9158C10.3346 21.2895 9.86313 21.5773 9.34838 21.7616C8.83364 21.946 8.28657 22.0228 7.74097 21.9874C7.19537 21.952 6.66283 21.8051 6.17622 21.5558C5.68961 21.3065 5.25927 20.9601 4.91178 20.538C4.56429 20.1159 4.30703 19.627 4.15589 19.1016C4.00474 18.5761 3.96291 18.0253 4.033 17.483" stroke="#525252" stroke-width="1.25" stroke-linecap="round" stroke-linejoin="round"/>
<path d="M5.99995 18C5.11944 18 4.26355 17.7094 3.56501 17.1734C2.86647 16.6373 2.36432 15.8858 2.13642 15.0353C1.90853 14.1848 1.96763 13.2829 2.30456 12.4694C2.6415 11.6559 3.23743 10.9763 3.99995 10.536" stroke="#525252" stroke-width="1.25" stroke-linecap="round" stroke-linejoin="round"/>
<path d="M6.00305 5.125C5.41525 5.27614 4.86955 5.55905 4.40728 5.95231C3.94501 6.34557 3.57829 6.83887 3.3349 7.39485C3.0915 7.95082 2.97781 8.55489 3.00244 9.16131C3.02707 9.76773 3.18937 10.3606 3.47705 10.895" stroke="#525252" stroke-width="1.25" stroke-linecap="round" stroke-linejoin="round"/>
</svg>
