<svg width="6" height="6" viewBox="0 0 6 6" fill="none" xmlns="http://www.w3.org/2000/svg">
<path d="M5.85801 1.4789L4.51828 0.138418C4.47221 0.0961651 4.4185 0.0577455 4.36092 0.0346983C4.30334 0.0116511 4.24183 0 4.17657 0C4.11515 0 4.05374 0.0116511 3.99616 0.0346983C3.93474 0.0577455 3.88487 0.0961651 3.8388 0.138418L0.142081 3.83745C0.096015 3.88354 0.0614545 3.93719 0.0345829 3.99481C0.0115501 4.05243 0 4.11388 0 4.17918V5.51985C0 5.64661 0.0499494 5.76948 0.142081 5.85783C0.230373 5.95002 0.35317 6 0.47985 6H5.52015C5.58157 6 5.64306 5.97304 5.68913 5.93079C5.73136 5.8847 5.7582 5.82335 5.7582 5.75805C5.7582 5.69659 5.73136 5.63515 5.68913 5.58906C5.64306 5.54681 5.58157 5.51985 5.52015 5.51985H2.49906L5.85801 2.1588C5.90408 2.11271 5.93864 2.06271 5.96167 2.00125C5.9847 1.94363 6 1.88228 6 1.82082C6 1.75552 5.9847 1.69407 5.96167 1.63645C5.93864 1.57883 5.90408 1.52499 5.85801 1.4789ZM1.81959 5.51985H0.47985V4.17918L3.1209 1.53648L4.46073 2.87715L1.81959 5.51985ZM4.7985 2.53917L3.45876 1.1985L4.17657 0.476399L5.52015 1.82082L4.7985 2.53917Z" fill="white"/>
</svg>
