<svg width="14" height="14" viewBox="0 0 14 14" fill="none" xmlns="http://www.w3.org/2000/svg">
<path d="M7.30456 3.26206C8.55001 3.26206 9.39842 3.78962 9.87702 4.23559L11.7588 2.43537C10.6003 1.38572 9.09931 0.738525 7.30456 0.738525C4.69946 0.738525 2.4479 2.20151 1.35474 4.33345L3.50841 5.97592C4.04683 4.39872 5.54245 3.26206 7.30456 3.26206Z" fill="#F25022"/>
<path d="M13.695 7.41161C13.695 6.87319 13.6516 6.48163 13.5537 6.07373H7.29932V8.49934H10.9704C10.8997 9.09758 10.4972 10.0058 9.61073 10.615L11.71 12.2084C12.9717 11.0718 13.695 9.39671 13.695 7.41161Z" fill="#4285F4"/>
<path d="M3.51381 8.55387C3.37241 8.15142 3.29101 7.71633 3.29101 7.26492C3.29101 6.81352 3.37253 6.37843 3.5085 5.97597L1.35483 4.3335C0.90342 5.21999 0.642334 6.21527 0.642334 7.26492C0.642334 8.31458 0.90342 9.30985 1.35483 10.1964L3.51381 8.55387Z" fill="#FBBC05"/>
<path d="M7.30462 13.7914C9.09937 13.7914 10.6114 13.2094 11.71 12.2087L9.61073 10.6152C9.05055 11.0014 8.29445 11.2678 7.30462 11.2678C5.54251 11.2678 4.04677 10.1312 3.51378 8.55396L1.36011 10.1964C2.45327 12.3284 4.69952 13.7914 7.30462 13.7914Z" fill="#34A853"/>
</svg>
