<svg width="14" height="14" viewBox="0 0 14 14" fill="none" xmlns="http://www.w3.org/2000/svg">
<g clip-path="url(#clip0_851_14)">
<path opacity="0.2" fill-rule="evenodd" clip-rule="evenodd" d="M7 1.3125C5.49158 1.3125 4.04494 1.91172 2.97833 2.97833C1.91172 4.04494 1.3125 5.49158 1.3125 7C1.3125 8.50842 1.91172 9.95506 2.97833 11.0217C4.04494 12.0883 5.49158 12.6875 7 12.6875C8.50842 12.6875 9.95506 12.0883 11.0217 11.0217C12.0883 9.95506 12.6875 8.50842 12.6875 7C12.6875 5.49158 12.0883 4.04494 11.0217 2.97833C9.95506 1.91172 8.50842 1.3125 7 1.3125ZM0 7C0 5.14348 0.737498 3.36301 2.05025 2.05025C3.36301 0.737498 5.14348 0 7 0C8.85652 0 10.637 0.737498 11.9497 2.05025C13.2625 3.36301 14 5.14348 14 7C14 8.85652 13.2625 10.637 11.9497 11.9497C10.637 13.2625 8.85652 14 7 14C5.14348 14 3.36301 13.2625 2.05025 11.9497C0.737498 10.637 0 8.85652 0 7Z" fill="#93C572"/>
<path fill-rule="evenodd" clip-rule="evenodd" d="M6.34375 0.65625C6.34375 0.482202 6.41289 0.315282 6.53596 0.192211C6.65903 0.0691404 6.82595 0 7 0C8.85652 0 10.637 0.737498 11.9497 2.05025C13.2625 3.36301 14 5.14348 14 7C14 7.17405 13.9309 7.34097 13.8078 7.46404C13.6847 7.58711 13.5178 7.65625 13.3438 7.65625C13.1697 7.65625 13.0028 7.58711 12.8797 7.46404C12.7566 7.34097 12.6875 7.17405 12.6875 7C12.6875 5.49158 12.0883 4.04494 11.0217 2.97833C9.95506 1.91172 8.50842 1.3125 7 1.3125C6.82595 1.3125 6.65903 1.24336 6.53596 1.12029C6.41289 0.997218 6.34375 0.830298 6.34375 0.65625Z" fill="white"/>
</g>
<defs>
<clipPath id="clip0_851_14">
<rect width="14" height="14" fill="white"/>
</clipPath>
</defs>
</svg>
