<svg width="15" height="15" viewBox="0 0 15 15" fill="none" xmlns="http://www.w3.org/2000/svg">
<path d="M0.427964 14.1891C1.72802 13.5428 6.18308 9.52871 7.20151 8.53653C7.23301 8.50565 7.26327 8.4757 7.28983 8.44914C7.63815 8.10143 7.9661 7.74106 8.27737 7.37328C8.65349 6.9283 9.00429 6.47158 9.3205 6.00406C9.46996 5.74683 9.61417 5.48836 9.75344 5.22711C9.75406 5.22619 9.75437 5.22526 9.75498 5.22433C9.89425 4.96309 10.0286 4.69937 10.1589 4.43133L10.2055 4.33499L10.2064 4.33468C10.3216 4.09443 10.4294 3.85851 10.5285 3.62753C10.539 3.60282 10.5505 3.57719 10.561 3.55249C10.6057 3.44688 10.6477 3.34281 10.6891 3.23905C10.7055 3.19829 10.7221 3.15691 10.7376 3.11677C10.7743 3.02259 10.8089 2.92994 10.8426 2.83761C10.8586 2.79376 10.8747 2.74991 10.8898 2.70699C10.9226 2.61404 10.9537 2.52233 10.9837 2.43154C10.9951 2.39634 11.0069 2.36113 11.018 2.32655C11.051 2.2231 11.0822 2.12058 11.1112 2.0196C11.1156 2.00416 11.1202 1.98841 11.1245 1.97328C11.1928 1.73118 11.2499 1.49649 11.295 1.27014L11.3271 1.10895C11.4095 0.645128 11.4302 0.27364 11.4105 0.00158691C10.7052 0.218365 8.90115 0.938797 7.22807 1.68085C5.71957 2.34971 4.38556 3.25635 3.26306 4.37575L3.24021 4.39891C2.47037 5.16782 1.78731 5.99047 1.20923 6.8443C-0.658088 10.0481 0.11237 13.07 0.427964 14.1891ZM8.31011 2.02856L8.37495 1.99366C8.62663 1.8581 8.88694 1.71728 9.16023 1.60889C9.31865 1.54621 9.49837 1.62403 9.56106 1.78213C9.62405 1.94086 9.54654 2.12027 9.38782 2.18326C9.14819 2.27838 8.91505 2.40406 8.668 2.53715L8.60285 2.57235C8.55622 2.59737 8.50619 2.6091 8.45679 2.6091C8.34685 2.6091 8.24032 2.55043 8.18473 2.44698C8.10383 2.2969 8.15972 2.10946 8.31011 2.02856ZM4.25771 4.74724C4.98185 3.99469 5.79739 3.36999 6.6818 2.89073C6.83188 2.80982 7.01932 2.8651 7.10053 3.01486C7.18175 3.16463 7.12616 3.35238 6.97609 3.43329C6.14757 3.88229 5.38267 4.4687 4.703 5.17524C4.64248 5.23823 4.56157 5.27004 4.48036 5.27004C4.40316 5.27004 4.32596 5.24132 4.26636 5.18388C4.14346 5.06592 4.13944 4.87045 4.25771 4.74724ZM1.39698 10.0691C1.25926 10.7018 1.15519 11.7345 1.35591 12.0504C1.44732 12.1946 1.40501 12.3854 1.26111 12.4768C1.20954 12.5093 1.15241 12.525 1.09559 12.525C0.993379 12.525 0.893636 12.4744 0.834655 12.382C0.426729 11.7406 0.728736 10.2328 0.793585 9.93694C0.830332 9.77019 0.99554 9.6652 1.16106 9.70133C1.32781 9.73746 1.43342 9.90236 1.39698 10.0691Z" fill="#93C572"/>
<path d="M0.136108 14.8666L0.136636 14.8676V14.8666H0.136108Z" fill="#93C572"/>
<path d="M15 3.59499C14.9419 3.59097 14.8765 3.5885 14.8024 3.5885C14.538 3.5885 14.1341 3.61876 13.5807 3.74043L13.4705 3.76637C13.0376 3.86766 12.5784 4.00847 12.0963 4.18757C12.0914 4.18943 12.0858 4.19159 12.0809 4.19344C11.8499 4.2796 11.6137 4.37471 11.3728 4.47816C11.3512 4.48742 11.3287 4.49761 11.307 4.50687C11.0971 4.59797 10.8828 4.6971 10.6657 4.80116C10.6545 4.82401 10.6419 4.84656 10.6308 4.86941C10.5347 5.06333 10.4331 5.26158 10.3254 5.46385C10.2988 5.51387 10.2729 5.56452 10.2457 5.61454C10.1188 5.84923 9.9863 6.08763 9.84302 6.33312C9.2319 7.23729 8.52382 8.0902 7.7265 8.8866C7.21852 9.39488 2.7159 13.5464 0.941528 14.6108C1.51374 14.7677 2.48152 14.9978 3.68399 14.9978C5.28234 14.9978 6.79392 14.5892 8.17611 13.7829C9.01235 13.2163 9.83499 12.5329 10.6036 11.7637L10.6289 11.7384C11.7455 10.6187 12.6522 9.28464 13.3214 7.77584C14.0625 6.1043 14.7823 4.30183 15 3.59499Z" fill="#93C572"/>
<path d="M11.858 1.59304C11.7962 1.87065 11.7138 2.16154 11.6205 2.4586C11.6159 2.47374 11.6115 2.48825 11.6066 2.50338C11.5597 2.6513 11.5087 2.80168 11.4544 2.95423C11.4528 2.95855 11.4513 2.96257 11.4497 2.96689C11.337 3.28156 11.2129 3.60271 11.0684 3.9356C11.0801 3.93066 11.0912 3.92633 11.1026 3.92139C11.2651 3.8516 11.4222 3.78645 11.5745 3.72623C11.6159 3.70987 11.6566 3.69473 11.698 3.67868C11.8184 3.63236 11.9358 3.58851 12.05 3.54774C12.0979 3.53076 12.1455 3.51347 12.193 3.4971C12.3372 3.44738 12.4771 3.40137 12.6108 3.3603C12.6485 3.34888 12.6852 3.33838 12.7226 3.32726C12.8427 3.29175 12.9585 3.25933 13.0697 3.2303C13.0919 3.22443 13.1154 3.21702 13.1376 3.21115C13.3081 2.5216 13.7963 1.45284 13.8568 1.3216C13.9763 1.06252 13.9819 0.84512 13.9516 0.800961C13.9523 0.800344 13.9328 0.796021 13.8927 0.796021C13.8192 0.796021 13.6814 0.817328 13.4437 0.918614C13.2386 1.00601 13.0401 1.09895 12.8511 1.18696C12.4805 1.36082 12.1504 1.51522 11.858 1.59304Z" fill="#93C572"/>
</svg>
