<svg width="8" height="7" viewBox="0 0 8 7" fill="none" xmlns="http://www.w3.org/2000/svg">
<path d="M7.13231 0.324585H1.14982C1.00298 0.324585 0.867032 0.384431 0.763698 0.482326C0.665803 0.58566 0.605957 0.721605 0.605957 0.868447V5.76321C0.605957 5.91005 0.665803 6.046 0.763698 6.14933C0.867032 6.24723 1.00298 6.30707 1.14982 6.30707H7.13231C7.27915 6.30707 7.41509 6.24723 7.51843 6.14933C7.61632 6.046 7.67617 5.91005 7.67617 5.76321V0.868447C7.67617 0.721605 7.61632 0.58566 7.51843 0.482326C7.41509 0.384431 7.27915 0.324585 7.13231 0.324585ZM1.14982 0.868447H2.50948V5.76321H1.14982V0.868447ZM7.13231 5.76321H3.05334V0.868447H7.13231V5.76321Z" fill="#525252"/>
</svg>
