<svg width="11" height="12" viewBox="0 0 11 12" fill="none" xmlns="http://www.w3.org/2000/svg">
<path d="M9.88525 7.76833L7.48142 6.69149L7.47584 6.68604C7.35075 6.63166 7.2148 6.60991 7.07883 6.62623C6.94286 6.6371 6.81237 6.68061 6.7036 6.75675C6.68728 6.76763 6.6765 6.77853 6.66562 6.78397L5.42016 7.84447C4.63699 7.46377 3.82656 6.65886 3.44042 5.88114L4.50106 4.61934C4.51194 4.60846 4.52258 4.59762 4.53346 4.5813C4.60416 4.46709 4.64792 4.34203 4.6588 4.20607C4.67512 4.0701 4.65317 3.93952 4.59878 3.81443V3.80899L3.51664 1.39972C3.45137 1.242 3.32608 1.10599 3.1738 1.01897C3.02152 0.931955 2.84753 0.893916 2.67349 0.915671C1.98278 1.00813 1.34658 1.34533 0.889738 1.87287C0.427455 2.39498 0.177246 3.06936 0.177246 3.76551C0.177246 7.81184 3.47305 11.1076 7.51939 11.1076C8.21553 11.1076 8.88991 10.8574 9.41202 10.3952C9.93957 9.93831 10.2769 9.30204 10.3694 8.61134C10.3911 8.4373 10.3528 8.26324 10.2658 8.11096C10.1788 7.95868 10.043 7.83359 9.88525 7.76833ZM7.51939 10.2919C5.78991 10.2919 4.13114 9.60114 2.90745 8.37745C1.68376 7.15376 0.99304 5.49499 0.99304 3.76551C0.99304 3.26515 1.17261 2.78656 1.49893 2.41129C1.82525 2.03603 2.27657 1.79128 2.77148 1.72602V1.73146L3.84301 4.12992L2.78768 5.39165C2.7768 5.40253 2.76603 5.41344 2.76059 5.42976C2.68445 5.54941 2.63538 5.67992 2.62994 5.82132C2.61906 5.96273 2.64633 6.10413 2.70615 6.22922C3.16844 7.17554 4.12012 8.12183 5.07732 8.57868C5.20241 8.64394 5.34381 8.66571 5.48522 8.66027C5.62662 8.64939 5.76284 8.60044 5.88249 8.5243C5.89337 8.51343 5.90401 8.50252 5.91489 8.49164L7.15504 7.43658L9.55356 8.50797H9.55887C9.49361 9.00289 9.249 9.45972 8.87374 9.78603C8.49847 10.1124 8.01974 10.2919 7.51939 10.2919Z" fill="black"/>
</svg>
