<svg width="8" height="8" viewBox="0 0 8 8" fill="none" xmlns="http://www.w3.org/2000/svg">
<g clip-path="url(#clip0_802_176)">
<path d="M1.23797 1.01609C1.20799 1.00146 1.17429 0.996196 1.14128 1.00099C1.10827 1.00579 1.07746 1.02042 1.05289 1.04298C1.02831 1.06554 1.0111 1.09498 1.00351 1.12747C0.99591 1.15995 0.998278 1.19397 1.0103 1.22509L1.95797 3.76743C2.01386 3.9175 2.01386 4.08268 1.95797 4.23276L1.01063 6.77509C0.998672 6.80617 0.996335 6.84014 1.00393 6.87256C1.01152 6.90499 1.02869 6.93438 1.05321 6.95692C1.07772 6.97946 1.10845 6.99411 1.1414 6.99895C1.17435 7.0038 1.208 6.99862 1.23797 6.98409L7.23797 4.15076C7.26651 4.13726 7.29063 4.11593 7.30752 4.08926C7.32441 4.06259 7.33338 4.03167 7.33338 4.00009C7.33338 3.96852 7.32441 3.9376 7.30752 3.91093C7.29063 3.88425 7.26651 3.86292 7.23797 3.84943L1.23797 1.01609Z" stroke="white" stroke-width="0.75" stroke-linecap="round" stroke-linejoin="round"/>
<path d="M2 4H7.33333" stroke="white" stroke-width="0.75" stroke-linecap="round" stroke-linejoin="round"/>
</g>
<defs>
<clipPath id="clip0_802_176">
<rect width="8" height="8" fill="white"/>
</clipPath>
</defs>
</svg>
